<svg xmlns="http://www.w3.org/2000/svg" viewBox="0 0 512 512">
    <defs>
        <linearGradient id="grad1" x1="0%" y1="0%" x2="100%" y2="100%">
            <stop offset="0%" style="stop-color:#06b6d4;stop-opacity:1" />
            <stop offset="50%" style="stop-color:#3b82f6;stop-opacity:1" />
            <stop offset="100%" style="stop-color:#8b5cf6;stop-opacity:1" />
        </linearGradient>
        <linearGradient id="grad2" x1="0%" y1="0%" x2="100%" y2="100%">
            <stop offset="0%" style="stop-color:#22d3ee;stop-opacity:1" />
            <stop offset="100%" style="stop-color:#a855f7;stop-opacity:1" />
        </linearGradient>
    </defs>

    <!-- Background circle -->
    <circle cx="256" cy="256" r="250" fill="#0f172a" />
    <circle cx="256" cy="256" r="240" fill="none" stroke="url(#grad1)" stroke-width="4" />

    <!-- U letter stylized as shield/flag -->
    <path d="M160 140 L160 300 Q160 380 256 380 Q352 380 352 300 L352 140" fill="none" stroke="url(#grad2)"
        stroke-width="40" stroke-linecap="round" stroke-linejoin="round" />

    <!-- Flag accent on top -->
    <path d="M352 140 L352 100 L400 120 L352 140" fill="url(#grad1)" />

    <!-- Cyber circuit lines -->
    <circle cx="160" cy="140" r="8" fill="#06b6d4" />
    <circle cx="352" cy="140" r="8" fill="#8b5cf6" />
    <circle cx="256" cy="380" r="8" fill="#3b82f6" />

    <!-- Small decorative elements -->
    <rect x="120" y="180" width="20" height="4" fill="#06b6d4" opacity="0.6" />
    <rect x="372" y="180" width="20" height="4" fill="#8b5cf6" opacity="0.6" />
    <rect x="120" y="220" width="15" height="4" fill="#06b6d4" opacity="0.4" />
    <rect x="377" y="220" width="15" height="4" fill="#8b5cf6" opacity="0.4" />
</svg>